<?xml version="1.0" encoding="UTF-8"?>
<svg width="64" height="64" version="1" xmlns="http://www.w3.org/2000/svg">
 <defs>
  <filter id="filter15" x="-.49122" y="-.49117" width="1.9824" height="1.9823" color-interpolation-filters="sRGB">
   <feGaussianBlur in="SourceAlpha" result="result0" stdDeviation="2.3"/>
   <feMorphology in="SourceAlpha" radius="6.5" result="result1"/>
   <feGaussianBlur in="result1" stdDeviation="7"/>
   <feColorMatrix result="result91" values="1 0 0 0 0 0 1 0 0 0 0 0 1 0 0 0 0 0 0.3 0"/>
   <feComposite in="result0" in2="result91" operator="out" result="result2"/>
   <feDiffuseLighting surfaceScale="10">
    <feDistantLight azimuth="225" elevation="45"/>
   </feDiffuseLighting>
   <feBlend in2="SourceGraphic" mode="multiply"/>
   <feComposite in2="SourceAlpha" operator="in" result="result3"/>
   <feGaussianBlur in="result3" result="result4" stdDeviation="1"/>
   <feComposite in2="result3" operator="atop"/>
  </filter>
  <filter id="filter18" x="-1.9275" y="-1.93" width="4.8551" height="4.8601" color-interpolation-filters="sRGB">
   <feGaussianBlur in="SourceAlpha" result="result0" stdDeviation="2.3"/>
   <feMorphology in="SourceAlpha" radius="6.5" result="result1"/>
   <feGaussianBlur in="result1" stdDeviation="7"/>
   <feColorMatrix result="result91" values="1 0 0 0 0 0 1 0 0 0 0 0 1 0 0 0 0 0 0.3 0"/>
   <feComposite in="result0" in2="result91" operator="out" result="result2"/>
   <feDiffuseLighting surfaceScale="10">
    <feDistantLight azimuth="225" elevation="45"/>
   </feDiffuseLighting>
   <feBlend in2="SourceGraphic" mode="multiply"/>
   <feComposite in2="SourceAlpha" operator="in" result="result3"/>
   <feGaussianBlur in="result3" result="result4" stdDeviation="1"/>
   <feComposite in2="result3" operator="atop"/>
  </filter>
 </defs>
 <path d="m3 20.744v30.35c0 2.1645 1.7521 3.9067 3.9286 3.9067h46.9c2.1764 0 3.9286-1.7423 3.9286-3.9067v-0.60754c0.15402-0.41955 0.24298-0.87197 0.24298-1.3458v-28.396z" opacity=".2"/>
 <path d="m3 19.744v30.35c0 2.1645 1.7521 3.9067 3.9286 3.9067h46.9c2.1764 0 3.9286-1.7423 3.9286-3.9067v-0.60754c0.15402-0.41955 0.24298-0.87197 0.24298-1.3458v-28.396z" fill="#00e400"/>
 <path d="m6.9286 12c-2.1764 0-3.9286 1.7425-3.9286 3.907v4.093h55v-4.093c0-2.1645-1.7521-3.907-3.9286-3.907z" fill="#005000"/>
 <path d="m6.9277 12c-2.1764 0-3.9277 1.7418-3.9277 3.9062v1c0-2.1645 1.7513-3.9062 3.9277-3.9062h47.145c2.1764 0 3.9277 1.7418 3.9277 3.9062v-1c0-2.1645-1.7513-3.9062-3.9277-3.9062h-47.145z" fill="#0f0" opacity=".1"/>
 <path d="m11.309 27.336c6.5775 2.2323-4.041 9.5624 5.546 10.176 5.6342 0.3605 5.1181 8.1792 5.1181 8.1792" fill="none" stroke="#004e00" stroke-linecap="round" stroke-width="2.6364"/>
 <g>
  <path d="m54.502 8.0039c-0.42234-0.029636-0.91327 0.12151-1.4043 0.67969l-29.189 29.15 0.72656 0.72656-3.6348 7.9863 1.4551 1.4531 7.998-3.6309 0.72656 0.72656 29.234-29.197c1.4319-1.4301-0.21094-2.8164-0.21094-2.8164l-4.4863-4.4785s-0.51094-0.55022-1.2148-0.59961z" opacity=".1"/>
  <path d="m31.18 44.095-7.2711-7.2617 29.188-29.151c1.3094-1.4885 2.6209-0.079483 2.6209-0.079483l4.4849 4.4791s1.6435 1.3858 0.21157 2.8159z" fill="#008500" filter="url(#filter15)"/>
  <rect transform="matrix(-.70756 -.70665 .70756 -.70665 0 0)" x="-53.23" y="25.77" width="10.276" height="2.055" fill="#004d00"/>
  <rect transform="matrix(-.70756 -.70665 .70756 -.70665 0 0)" x="-53.23" y="-3" width="10.276" height="2.055" fill="#004d00"/>
  <path d="m30.452 43.369-5.8169-5.8094-3.6355 7.9879 1.4542 1.4523z" fill="#003900" filter="url(#filter18)"/>
  <path d="m35.542 25.215a2.5691 5.1381 45.062 0 0 5.4533-1.8154 2.5691 5.1381 45.062 0 0 1.8178-5.4463z" fill="#004d00"/>
 </g>
</svg>
